<?xml version="1.0" encoding="UTF-8"?>
<svg id="Layer_1" xmlns="http://www.w3.org/2000/svg" version="1.1" viewBox="0 0 1027.7 927.9">
  <!-- Generator: Adobe Illustrator 29.1.0, SVG Export Plug-In . SVG Version: 2.1.0 Build 142)  -->
  <defs>
    <style>
      .st0 {
        fill: #d4af37;
      }
    </style>
  </defs>
  <g>
    <g>
      <path class="st0" d="M318.9,366.1v9.3h-9.2v-9.3c0-1.7-1.4-3.1-3.1-3.1h-7.5c-1.7,0-3.1,1.4-3.1,3.1v21.2c0,1.1.7,2.3,1.7,2.7l14.2,6.8c4.2,2.1,7,6.5,7,11.3v32.1c0,6.9-5.4,12.4-12.3,12.4h-7.5c-6.8,0-12.3-5.5-12.3-12.4v-9.3h9.2v9.3c0,1.7,1.4,3.1,3.1,3.1h7.5c1.7,0,3.1-1.4,3.1-3.1v-32.1c0-1.3-.7-2.3-1.7-2.8l-14.2-6.8c-4.2-2.1-7-6.5-7-11.2v-21.2c0-6.9,5.4-12.4,12.3-12.4h7.5c6.8,0,12.3,5.5,12.3,12.4h0Z"/>
      <path class="st0" d="M361.2,353.7h9.2v86.5c0,6.9-5.4,12.4-12.3,12.4h-7.5c-6.8,0-12.3-5.5-12.3-12.4v-86.5h9.2v86.5c0,1.7,1.4,3.1,3.1,3.1h7.5c1.7,0,3.1-1.4,3.1-3.1v-86.5h0Z"/>
      <path class="st0" d="M389.9,353.7h19.8c6.8,0,12.3,5.5,12.3,12.4v30.1c0,6.4-4.7,11.6-10.9,12.3l-12,1.3v42.8h-9.2v-99h0ZM412.7,366.1c0-1.7-1.4-3.1-3.1-3.1h-10.6v37.5l10.9-1.1c1.7-.3,2.8-1.6,2.8-3.1v-30.1h0Z"/>
      <path class="st0" d="M441.4,353.7h19.8c6.8,0,12.3,5.5,12.3,12.4v30.1c0,5.2-3.2,9.6-7.7,11.5l7.8,45h-9.3l-7.5-43.4-6.1.6v42.8h-9.2v-99h0ZM450.6,363v37.5l10.9-1.1c1.7-.3,2.8-1.6,2.8-3.1v-30.1c0-1.7-1.4-3.1-3.1-3.1h-10.6Z"/>
      <path class="st0" d="M505.3,443.3h15.2v9.3h-15.2c-6.8,0-12.3-5.5-12.3-12.4v-86.5h27.4v9.3h-18.2v30.8l15.5-1.8v9.5l-15.5,1.8v36.9c0,1.7,1.4,3.1,3.1,3.1h0Z"/>
      <path class="st0" d="M580.6,353.7h6.4v99h-9.2v-89.3c-5.6,1.3-9.7,6.4-9.7,12.4v20.1h-9.2v-20.1c0-6.1-4-11.2-9.6-12.4v89.3h-9.2v-99h6.4c7,0,13.1,3.2,17,8.5,4-5.2,10.2-8.5,17.1-8.5h0Z"/>
      <path class="st0" d="M618.7,443.3h15.2v9.3h-15.2c-6.8,0-12.3-5.5-12.3-12.4v-86.5h27.4v9.3h-18.2v30.8l15.5-1.8v9.5l-15.5,1.8v36.9c0,1.7,1.4,3.1,3.1,3.1h0Z"/>
      <path class="st0" d="M710.6,353.7h9.2v99h-9.2v-15c-7.8-9.5-14.1-19.9-18.7-31.2v46.2h-9.2v-99h9.2v6.2c0,22.2,6.5,44,18.7,62.2v-68.4h0Z"/>
      <path class="st0" d="M771.4,366.1v74.1c0,6.9-5.4,12.4-12.3,12.4h-7.5c-6.8,0-12.3-5.5-12.3-12.4v-74.1c0-6.9,5.4-12.4,12.3-12.4h7.5c6.8,0,12.3,5.5,12.3,12.4ZM762.3,366.1c0-1.7-1.4-3.1-3.1-3.1h-7.5c-1.7,0-3.1,1.4-3.1,3.1v74.1c0,1.7,1.4,3.1,3.1,3.1h7.5c1.7,0,3.1-1.4,3.1-3.1v-74.1Z"/>
      <path class="st0" d="M831.4,353.7h6.4v99h-9.2v-89.3c-5.6,1.3-9.7,6.4-9.7,12.4v20.1h-9.2v-20.1c0-6.1-4-11.2-9.6-12.4v89.3h-9.2v-99h6.4c7,0,13.1,3.2,17,8.5,4-5.2,10.2-8.5,17.1-8.5h0Z"/>
      <path class="st0" d="M877.1,353.7c6.8,0,12.3,5.5,12.3,12.4v86.5h-9.2v-50.9l-13.6,1.7v49.2h-9.2v-86.5c0-6.9,5.4-12.4,12.3-12.4h7.5,0ZM866.5,394l13.6-1.6v-26.3c0-1.7-1.4-3.1-3.1-3.1h-7.5c-1.7,0-3.1,1.4-3.1,3.1v27.8h0Z"/>
      <path class="st0" d="M940.9,366.1v74.1c0,6.9-5.4,12.4-12.3,12.4h-19.8v-99h19.8c6.8,0,12.3,5.5,12.3,12.4ZM931.7,366.1c0-1.7-1.4-3.1-3.1-3.1h-10.6v80.3h10.6c1.7,0,3.1-1.4,3.1-3.1v-74.1h0Z"/>
      <path class="st0" d="M992.4,366.1v9.3h-9.2v-9.3c0-1.7-1.4-3.1-3.1-3.1h-7.5c-1.7,0-3.1,1.4-3.1,3.1v21.2c0,1.1.7,2.3,1.7,2.7l14.2,6.8c4.2,2.1,7,6.5,7,11.3v32.1c0,6.9-5.4,12.4-12.3,12.4h-7.5c-6.8,0-12.3-5.5-12.3-12.4v-9.3h9.2v9.3c0,1.7,1.4,3.1,3.1,3.1h7.5c1.7,0,3.1-1.4,3.1-3.1v-32.1c0-1.3-.7-2.3-1.7-2.8l-14.2-6.8c-4.2-2.1-7-6.5-7-11.2v-21.2c0-6.9,5.4-12.4,12.3-12.4h7.5c6.8,0,12.3,5.5,12.3,12.4h0Z"/>
    </g>
    <g>
      <path class="st0" d="M392.2,511.3v-37.7h15.1c4,0,7.4.8,10.4,2.4,3,1.6,5.3,3.8,7,6.7,1.7,2.8,2.5,6.1,2.5,9.8s-.8,7-2.5,9.8c-1.7,2.8-4,5.1-7,6.7-3,1.6-6.5,2.4-10.4,2.4h-15.1ZM396.1,507.8h11c3.3,0,6.1-.7,8.6-2s4.3-3.1,5.6-5.4c1.3-2.3,2-5,2-8s-.7-5.7-2-8c-1.3-2.3-3.2-4.1-5.6-5.4s-5.3-2-8.6-2h-11v30.8h0Z"/>
      <path class="st0" d="M466.5,507.8h22.3v3.5h-26.3v-37.7h25.5v3.5h-21.5v30.8h0ZM466.1,490.4h19.6v3.4h-19.6v-3.4Z"/>
      <path class="st0" d="M531.8,511.3v-34.3h-13.1v-3.5h30v3.5h-13.1v34.3h-3.9,0Z"/>
      <path class="st0" d="M573.8,511.3l17-37.7h3.9l17,37.7h-4.1l-15.6-35.4h1.6l-15.6,35.4h-4.1,0ZM580.5,501.2l1.2-3.2h21.6l1.2,3.2h-23.9Z"/>
      <path class="st0" d="M644.3,511.3v-37.7h3.9v37.7h-3.9Z"/>
      <path class="st0" d="M686.9,511.3v-37.7h3.9v34.3h20.8v3.5h-24.7,0Z"/>
      <path class="st0" d="M744.7,511.3v-37.7h3.9v37.7h-3.9Z"/>
      <path class="st0" d="M787.2,511.3v-37.7h3.2l25.6,32.8h-1.7v-32.8h3.9v37.7h-3.2l-25.6-32.8h1.7v32.8h-3.9,0Z"/>
      <path class="st0" d="M873.2,511.6c-2.8,0-5.4-.5-7.8-1.4-2.4-.9-4.5-2.3-6.2-4-1.8-1.7-3.1-3.8-4.1-6.1-1-2.3-1.5-4.9-1.5-7.7s.5-5.3,1.5-7.7,2.3-4.4,4.1-6.1c1.8-1.7,3.8-3.1,6.2-4,2.4-1,5-1.4,7.8-1.4s5.4.4,7.8,1.3c2.4.9,4.4,2.3,6,4.1l-2.4,2.5c-1.6-1.6-3.3-2.7-5.1-3.4s-3.9-1-6-1-4.4.4-6.3,1.2-3.6,1.9-5,3.3c-1.4,1.4-2.5,3.1-3.3,5-.8,1.9-1.2,4-1.2,6.2s.4,4.3,1.2,6.2c.8,1.9,1.9,3.6,3.3,5,1.4,1.4,3.1,2.5,5,3.3s4,1.2,6.3,1.2,4.1-.3,6-1c1.9-.6,3.6-1.7,5.2-3.3l2.2,3c-1.8,1.6-3.8,2.8-6.2,3.6-2.4.8-4.8,1.2-7.4,1.2h0ZM883.1,506.3v-13.9h3.8v14.4l-3.8-.5Z"/>
    </g>
    <rect class="st0" x="905.8" y="492.4" width="86.6" height="2.5"/>
    <rect class="st0" x="286.9" y="492.4" width="86.6" height="2.5"/>
  </g>
  <g>
    <g>
      <path class="st0" d="M206.2,411.9v-127.9H58.4v138.1l16.1,8.3,57.8,29.8,57.8-29.8,16.1-8.3v-10.1h0ZM62.5,288h139.7v131.5l-69.8,36-69.8-36v-131.5h0Z"/>
      <path class="st0" d="M132.3,449.1l64.2-33.1v-122.4H68.2v122.4l64.2,33.1h0ZM72.2,297.7h120.2v46.4c-11.8-10.4-23.9-16.8-35.2-20.6-12.2-4.1-23.3-5.3-32-5.3s-14.2,1-16.6,1.5c-2.9-2.7-6.1-4.3-8.7-5.2-2.8-1-4.9-1.2-5-1.2l-2-.2-.2,2c0,1-.1,1.9-.1,2.9,0,6.1,1.9,10.9,4,14.4-1.1,2.8-3.9,10.3-6.7,18.5-1.8,5.2-3.6,10.7-4.9,15.5-.7,2.4-1.2,4.6-1.6,6.6-.4,2-.6,3.6-.7,5.1,0,2.1.7,4.1,1.7,5.9,1.5,2.6,3.7,4.8,5.8,6.4,1.1.8,2.1,1.4,3.1,1.9.5.2,1,.4,1.4.6.5.1.9.2,1.5.2,4.2,0,7.5-1.5,9.8-2.9,1.1-.7,2-1.5,2.6-2.1.3-.3.5-.5.7-.8,0-.1.2-.2.3-.3,0,0,0-.1.1-.2,0,0,0-.1.1-.2,0,0,0-.1,0-.3,0-.1,0-.3,0-.6,0-.6,0-1.2-.2-1.8-.2-1.3-.5-2.7-.7-3.5.5-1.7,1.2-3,2-4.2.8-1.1,1.8-2,2.9-2.8,2-1.4,4.4-2.4,6.9-3.2,1.9-.7,3.9-1.3,5.9-1.9,1.3-.4,2.5-.9,3.7-1.5.1.9.3,2.2.5,3.7.3,2.7.6,6.2.6,9.2s-.2,4.4-1,7.9c-1.2,5.2-3.8,11.5-8.9,16.4-2.6,2.5-5.8,4.7-9.9,6.2-4.1,1.6-9.1,2.5-15.2,2.5-5.6,0-12.1-1.4-17.1-2.9-2.5-.7-4.6-1.5-6.2-2-.4-.2-.8-.3-1.1-.4v-109.6h0ZM72.2,411.7c1.6.6,3.7,1.3,6.1,2,5.2,1.5,11.9,3.1,18.2,3.1,8.7,0,15.6-1.8,21-4.8,4-2.2,7.2-5,9.7-8.1,3.7-4.6,5.8-9.6,7-14,1.2-4.4,1.5-8.2,1.5-10.2,0-3.5-.3-7.3-.7-10.2-.3-2.9-.7-5-.7-5h0c.8-.7,1.5-1.4,2.1-2.3.7-1,1.2-2.1,1.6-3.3.4-1.2.5-2.6.5-4.1h-4.1c0,1.8-.3,3.2-.9,4.3-.5,1-1.1,1.7-2,2.4-1.5,1.2-3.5,2.2-6,3-3.6,1.3-8,2.3-11.9,4.5-2,1.1-3.8,2.4-5.3,4.2-1.5,1.8-2.7,4.1-3.4,6.8v.5c-.1,0,0,.5,0,.5h0c0,.2.3,1.1.5,2.2.1.5.2,1.1.3,1.5,0,.2,0,.3,0,.4-.6.6-1.7,1.5-3.3,2.4-1.7.9-3.9,1.6-6.4,1.6h0c0,0-.4,0-.8-.3-.7-.3-1.6-.8-2.6-1.5-1.5-1.1-3.1-2.6-4.2-4.2-.6-.8-1-1.6-1.4-2.5-.3-.8-.5-1.6-.5-2.4s.2-2.4.6-4.2c.7-3.2,1.8-7.4,3.2-11.9,2.1-6.7,4.7-14,6.7-19.7.9-2.3,1.6-4.4,2.2-6,1.6,1.9,3,2.8,3.1,2.9l1.9-2.6.5-.7s-2.1-1.6-4.1-4.6c-2-3-4.1-7.4-4.1-13.3s0-.2,0-.2c.6.2,1.4.4,2.2.7,2.4.9,5.3,2.4,7.7,4.9l.8.9,1.2-.3h0c0,0,6.6-1.7,16.7-1.7s19,1.1,30.7,5.1c11.7,4,24.3,10.8,36.5,22.2v64l-25.9,13.3c1.4-7.1,2-13.9,2-20.1,0-23.4-8.4-40.9-16.9-52.4-8.4-11.5-16.8-17.2-17-17.2l-2.3,3.4h0c.1,0,8.2,5.5,16.1,16.5,8,11,15.9,27.4,15.9,49.7,0,6.9-.8,14.4-2.6,22.5l-29.6,15.3-60.1-31v-1.9h0Z"/>
      <path class="st0" d="M103.5,349.7c-1,2.2-.9,4.6,0,6.7,2.2-.6,4.1-2.1,5.1-4.3,1-2.2.9-4.6,0-6.7-2.2.6-4.1,2.1-5.1,4.3Z"/>
    </g>
    <g>
      <g>
        <path class="st0" d="M173.8,514.1l57.9,30.1c1.1.5,2.4-.2,2.5-1.5l1.4-15.6c0-.7-.3-1.3-.9-1.6l-55.7-28.9c-1.7-.9-3.8.2-4.3,2.2l-2.6,11.4c-.4,1.7.3,3.3,1.7,4h0Z"/>
        <path class="st0" d="M231.7,544.2s-6.3-.4-8.3,3.5c-2.1,4-3.4,28.5-3.4,28.5l-16.5-8.6,5.1-35.5,23.2,12.1h0Z"/>
        <path class="st0" d="M222.7,580l-32.8-17c-2.6-1.3-4.1-4.1-3.8-7.2l2.5-35.5h3.9c0,0-2.5,35.5-2.5,35.5-.1,1.5.6,2.8,1.9,3.5l32.8,17-1.9,3.6h0Z"/>
        <path class="st0" d="M198.5,526.6l9,.3s-4.7,16.6-13.6,24.3c0,0,7.4-15,4.6-24.6h0Z"/>
        <polyline class="st0" points="188.2 513.2 51.9 442.5 53.4 439.5 189.7 510.3"/>
        <polyline class="st0" points="181.1 513.3 135.3 489.6 139.6 481.4 185.4 505.2"/>
        <rect class="st0" x="49.7" y="438.9" width="6.9" height="5.2" transform="translate(-363.2 285.2) rotate(-62.5)"/>
        <rect class="st0" x="45.4" y="438.7" width="10.7" height="3.7" transform="translate(-363.6 282.5) rotate(-62.5)"/>
      </g>
      <g>
        <path class="st0" d="M217.9,466.7c-.8-2.7-.2-4.4,1.7-5.3,3.2-1.6,6.4-3.2,9.6-4.8,5.4-2.7,5.4-2.8,1.2-10.2-1.4-2.5-2.9-3.5-5.1-3.2-8.1,1.1-16.2,2.1-24.2,3.3-1.6.2-3.2.6-4.6,1.3-9.5,4.6-111.4,57.4-121,61.9-1.6.7-3.7.7-5.7.5-2.1-.3-4.1-.5-5.5,1.2,2.2,1.6,4.3,3.2,6.4,4.8,5.4,4.1,8,10.9,6.2,15.9-1.8,4.9-7.3,5.6-12.5,1.7-4.4-3.3-8.9-6.6-13.4-9.8-.7-.5-1.8-.8-2.4-.6-4.1,1.4-8.1,3.1-12.2,4.5-1.6.6-2,1.7-.8,3.8,1.6,3,3.3,5.9,4.9,8.8,1.3,2.3,2.6,2.9,4.2,2,1.9-1.1,3.9-2.2,6.6-3.6,1.9,4,3.7,7.6,5.4,11.2.8-.4,1.1-.5,1.5-.7,15.8-8,124.2-63.8,140-71.9,2.1-1.1,4-1.6,6.7.6,2.4,2,4.5,1.1,5.3-.6.9-2,2.5-2.1,4.1-2.6,1.7-.5,3.5-1,5.4-1.5-.6-2.4-1-4.5-1.6-6.6h0Z"/>
        <path class="st0" d="M41.7,498.4c3.8,2.8,19.6,14.3,28.2,20.6,3.7,2.7,5.3,6.5,4.1,9.7-1.1,2.9-4.2,3.1-7.7.5-12.3-9.1-14.5-10.5-26.8-19.6-3.6-2.6-5-5.3-4.5-8.7.5-3.2,3-4.4,6.7-2.5h0Z"/>
        <path class="st0" d="M97,549.8c-12,6.2-23.9,12.3-35.9,18.5-1-1.5-2.5-3.1-1.6-5.4.2-.4.2-1,0-1.3-2.1-3.5.2-7,.4-10.4,0-.6.8-1.3,1.3-1.6,6.4-3.4,12.8-6.7,19.1-10,.5-.2,1.2-.6,1.5-.5,2.7,2.1,7,1.4,9,4.7.5.7,1.3,1.4,2.1,1.6,2.5.6,3.1,2.5,4,4.3h0Z"/>
        <path class="st0" d="M59.9,581.1c-2.3-3.8-1.3-7.4,2.8-9.5,11.6-5.9,23.2-11.9,34.7-17.8,4.3-2.2,7.7-1.2,10,3-15.8,8.1-31.6,16.2-47.5,24.3h0Z"/>
      </g>
    </g>
  </g>
</svg>